<svg width="32" height="32" fill="none" xmlns="http://www.w3.org/2000/svg"><g clip-path="url(#a)"><rect width="32" height="32" rx="16" fill="#fff"/><path fill-rule="evenodd" clip-rule="evenodd" d="m32 26.7-8.86-6.14-5.5 1.46-4.55 2.6L11.56 32H32v-5.3z" fill="#4E1BBC"/><path d="M0 32h.81L0 28.1V32zM0 0h32v4.53L26.8 2a9.28 9.28 0 0 0-10.03 5.77l-7.74 3.27a9.48 9.48 0 0 0-9.03.54V0z" fill="#4E1BBC"/><path fill-rule="evenodd" clip-rule="evenodd" d="M0 28.6V14.33l4.4-1.77 17.1-6.92 3.6-1.46.58.24c2.17 1.2 4.33 3.25 6.32 5.6V27l-8.9-6.14a34.3 34.3 0 0 0-5.28 1.47 27.7 27.7 0 0 0-4.54 2.52L11.85 32H.65A78.8 78.8 0 0 1 0 28.6z" fill="#C4C4C4"/><path fill-rule="evenodd" clip-rule="evenodd" d="M0 28.6V14.33l4.4-1.77 17.1-6.92 3.6-1.46.58.24c2.17 1.2 4.33 3.25 6.32 5.6V27l-8.9-6.14a34.3 34.3 0 0 0-5.28 1.47 27.7 27.7 0 0 0-4.54 2.52L11.85 32H.65A78.8 78.8 0 0 1 0 28.6z" fill="url(#b)"/><path fill-rule="evenodd" clip-rule="evenodd" d="M0 28.75v-14.4l9.7-3.94a10.49 10.49 0 0 1 4.9 5.4 10.39 10.39 0 0 1-5.64 13.56c-3.03 1.23-6.3.9-8.96-.62z" fill="url(#c)"/><path fill-rule="evenodd" clip-rule="evenodd" d="M32 5.14V19.5c-.78.64-1.66 1.17-2.64 1.57a10.4 10.4 0 0 1-13.52-5.8c-.97-2.41-1-4.97-.23-7.26l13.24-5.36L32 5.14z" fill="url(#d)"/><path fill-rule="evenodd" clip-rule="evenodd" d="M0 27.8V11.33A9.63 9.63 0 1 1 0 27.8zM32 4.29v14.04A9.63 9.63 0 1 1 32 4.3z" fill="url(#e)"/><path d="M8.3 16.74a1.38 1.38 0 1 1 1.03 2.55l-2.55 1.04 1.03 2.55a1.38 1.38 0 1 1-2.55 1.03l-1.03-2.55-2.55 1.03a1.38 1.38 0 0 1-1.04-2.55l2.55-1.03-1.03-2.55a1.38 1.38 0 0 1 2.55-1.04l1.04 2.55 2.55-1.03z" fill="url(#f)"/><path fill-rule="evenodd" clip-rule="evenodd" d="M24.66 9.32a1.94 1.94 0 1 0-1.45-3.59 1.94 1.94 0 0 0 1.45 3.6zm-2.25 5.32a1.94 1.94 0 1 0-1.45-3.59 1.94 1.94 0 0 0 1.45 3.6zm8.64-5.59a1.94 1.94 0 1 1-3.59 1.46 1.94 1.94 0 0 1 3.6-1.46zm-3.32 7.84a1.94 1.94 0 1 0-1.45-3.58 1.94 1.94 0 0 0 1.45 3.58z" fill="url(#g)"/></g><defs><linearGradient id="b" x1="12.67" y1="9.22" x2="23.09" y2="34.93" gradientUnits="userSpaceOnUse"><stop stop-color="#FFD86A"/><stop offset="1" stop-color="#FFB63C"/></linearGradient><linearGradient id="e" x1="11.58" y1="6.5" x2="18.81" y2="24.36" gradientUnits="userSpaceOnUse"><stop stop-color="#FFE688"/><stop offset="1" stop-color="#FFBC11"/><stop offset="1" stop-color="#FFA919"/></linearGradient><linearGradient id="f" x1="13.19" y1="9.56" x2="17.84" y2="21.04" gradientUnits="userSpaceOnUse"><stop stop-color="#444"/><stop offset="1" stop-color="#222"/></linearGradient><linearGradient id="g" x1="34.61" y1=".05" x2="39.83" y2="12.94" gradientUnits="userSpaceOnUse"><stop stop-color="#444"/><stop offset="1" stop-color="#222"/></linearGradient><radialGradient id="c" cx="0" cy="0" r="1" gradientUnits="userSpaceOnUse" gradientTransform="rotate(67.75 -12.26 13.71) scale(10.1904)"><stop offset=".88" stop-color="#D1730C"/><stop offset="1" stop-color="#D1730C" stop-opacity="0"/></radialGradient><radialGradient id="d" cx="0" cy="0" r="1" gradientUnits="userSpaceOnUse" gradientTransform="matrix(3.85207 9.4157 -9.453 3.86733 25.47 11.6)"><stop offset=".88" stop-color="#D1730C"/><stop offset="1" stop-color="#D1730C" stop-opacity="0"/></radialGradient><clipPath id="a"><circle cx="16" cy="16" r="16"/></clipPath></defs></svg>